<svg xmlns="http://www.w3.org/2000/svg" width="18" height="19" fill="none" viewBox="0 0 18 19">
    <path fill="#fff" d="M7.849 15.698c1.779 0 3.432-.607 4.751-1.612l3.62 3.621c.21.21.482.314.733.314.252 0 .545-.105.733-.314.419-.419.419-1.067 0-1.486l-3.6-3.621c1.005-1.319 1.612-2.972 1.612-4.751C15.698 3.516 12.18 0 7.848 0 3.517 0 0 3.516 0 7.849c0 4.332 3.516 7.849 7.849 7.849zm0-13.605c3.16 0 5.756 2.574 5.756 5.756 0 3.181-2.596 5.756-5.756 5.756s-5.756-2.596-5.756-5.756 2.574-5.756 5.756-5.756z"/>
</svg>
