<svg xmlns="http://www.w3.org/2000/svg" width="768" height="225" fill="none" viewBox="0 0 768 225">
    <g filter="url(#filter0_d)">
        <path fill="#fff" d="M28.48 15.38c9.64 0 14.46 3.94 14.46 11.82 0 1.32-.14 2.74-.42 4.26l-2.1 12c-.96 5.56-3.04 9.68-6.24 12.36-3.2 2.68-7.7 4.02-13.5 4.02s-9.84-1.34-12.12-4.02C7 53.98 6.22 51.44 6.22 48.2c0-1.44.16-3.02.48-4.74l2.1-12c1.88-10.72 8.44-16.08 19.68-16.08zM22.3 50.54c2 0 3.6-.52 4.8-1.56 1.2-1.04 2.04-2.96 2.52-5.76l2.04-11.52c.12-.8.18-1.52.18-2.16 0-3.24-1.64-4.86-4.92-4.86-4.12.08-6.58 2.42-7.38 7.02L17.5 43.22c-.16 1-.24 2.04-.24 3.12 0 2.8 1.68 4.2 5.04 4.2zM69.404 15.8c5.24 0 8.98 1.32 11.22 3.96 1.64 2 2.46 4.5 2.46 7.5 0 1.08-.1 2.22-.3 3.42l-2.34 13.38c-.8 4.52-2.76 8.14-5.88 10.86-3.12 2.72-7.16 4.08-12.12 4.08h-17.46l7.62-43.2h16.8zm-3.78 9.36h-3.9l-4.26 24.48h5.7c1.88 0 3.34-.5 4.38-1.5 1.08-1.04 1.82-2.72 2.22-5.04l1.74-9.84c.16-.88.24-1.68.24-2.4 0-3.8-2.04-5.7-6.12-5.7zM105.953 59l.36-9.42h-10.02L93.353 59h-11.46l15.42-43.2h19.8l.24 43.2h-11.4zm-2.46-32.7l-4.74 15.24h7.86l.66-15.24h-3.78zm43.958-10.5c5.24 0 8.98 1.32 11.22 3.96 1.64 2 2.46 4.5 2.46 7.5 0 1.08-.1 2.22-.3 3.42l-2.34 13.38c-.8 4.52-2.76 8.14-5.88 10.86-3.12 2.72-7.16 4.08-12.12 4.08h-17.46l7.62-43.2h16.8zm-3.78 9.36h-3.9l-4.26 24.48h5.7c1.88 0 3.34-.5 4.38-1.5 1.08-1.04 1.82-2.72 2.22-5.04l1.74-9.84c.16-.88.24-1.68.24-2.4 0-3.8-2.04-5.7-6.12-5.7zm37.916-9.36l-7.56 43.2h-10.86l7.62-43.2h10.8zm41.836 0l-7.56 43.2h-10.86l-7.56-23.64-4.08 23.64h-10.86l7.62-43.2h11.16l7.44 22.08 3.9-22.08h10.8zm15.976 44.04c-5.68 0-9.6-1.32-11.76-3.96-1.48-1.84-2.22-4.36-2.22-7.56 0-1.48.16-3.1.48-4.86l2.1-12c1.88-10.72 8.44-16.08 19.68-16.08 4.64 0 8.16 1 10.56 3 2.4 1.96 3.6 4.66 3.6 8.1 0 1.4-.2 2.82-.6 4.26-.36 1.44-.72 2.52-1.08 3.24l-.6 1.08h-10.62c1.04-1.44 1.56-3.1 1.56-4.98 0-3.6-1.5-5.4-4.5-5.4-4.04 0-6.46 2.34-7.26 7.02l-2.04 11.52c-.2 1.08-.3 2.14-.3 3.18 0 2.76 1.62 4.14 4.86 4.14 3.28 0 5.38-1.64 6.3-4.92h-4.92l1.2-6.66h15.9l-.96 5.16-.3 1.74c-1.68 9.32-8.04 13.98-19.08 13.98zm57.219-44.04l6.42 20.7 13.8-20.7h11.34l-7.62 43.2h-10.86l4.32-24.36-9.24 14.52h-7.86l-4.08-14.52-4.32 24.36h-10.8l7.62-43.2h11.28zM350.465 59l.36-9.42h-10.02l-2.94 9.42h-11.46l15.42-43.2h19.8l.24 43.2h-11.4zm-2.46-32.7l-4.74 15.24h7.86l.66-15.24h-3.78zm60.457-10.5l-7.56 43.2h-10.86l-7.56-23.64-4.08 23.64h-10.86l7.62-43.2h11.16l7.44 22.08 3.9-22.08h10.8zm15.976 44.04c-5.68 0-9.6-1.32-11.76-3.96-1.48-1.84-2.22-4.36-2.22-7.56 0-1.48.16-3.1.48-4.86l2.1-12c1.88-10.72 8.44-16.08 19.68-16.08 4.64 0 8.16 1 10.56 3 2.4 1.96 3.6 4.66 3.6 8.1 0 1.4-.2 2.82-.6 4.26-.36 1.44-.72 2.52-1.08 3.24l-.6 1.08h-10.62c1.04-1.44 1.56-3.1 1.56-4.98 0-3.6-1.5-5.4-4.5-5.4-4.04 0-6.46 2.34-7.26 7.02l-2.04 11.52c-.2 1.08-.3 2.14-.3 3.18 0 2.76 1.62 4.14 4.86 4.14 3.28 0 5.38-1.64 6.3-4.92h-4.92l1.2-6.66h15.9l-.96 5.16-.3 1.74c-1.68 9.32-8.04 13.98-19.08 13.98zm61.659-44.46c9.64 0 14.46 3.94 14.46 11.82 0 1.32-.14 2.74-.42 4.26l-2.1 12c-.96 5.56-3.04 9.68-6.24 12.36-3.2 2.68-7.7 4.02-13.5 4.02s-9.84-1.34-12.12-4.02c-1.56-1.84-2.34-4.38-2.34-7.62 0-1.44.16-3.02.48-4.74l2.1-12c1.88-10.72 8.44-16.08 19.68-16.08zm-6.18 35.16c2 0 3.6-.52 4.8-1.56 1.2-1.04 2.04-2.96 2.52-5.76l2.04-11.52c.12-.8.18-1.52.18-2.16 0-3.24-1.64-4.86-4.92-4.86-4.12.08-6.58 2.42-7.38 7.02l-2.04 11.52c-.16 1-.24 2.04-.24 3.12 0 2.8 1.68 4.2 5.04 4.2zM529.961 59h-27.36l7.62-43.2h10.8l-5.94 33.84h16.56l-1.68 9.36zm34.928 0h-30.12l7.62-43.2h30.12l-1.68 9.36h-19.32l-1.38 8.1h15.96l-1.68 9.36h-15.96l-1.2 7.02h19.32l-1.68 9.36zm47.831-43.2L605.16 59H594.3l2.76-15.6h-11.7l-2.7 15.6H571.8l7.62-43.2h10.8l-3.24 18.24h11.7l3.24-18.24h10.8z"/>
    </g>
    <g filter="url(#filter1_d)">
        <path fill="#fff" d="M36.6 142l.985.172.205-1.172H36.6v1zM24 214v1h.84l.145-.828L24 214zm-18.1 0l-.985-.174L4.708 215H5.9v-1zm12.7-72v-1h-.839l-.146.826.985.174zm17.015-.172l-12.6 72 1.97.344 12.6-72-1.97-.344zM24 213H5.9v2H24v-2zm-17.115 1.174l12.7-72-1.97-.348-12.7 72 1.97.348zM18.6 143h18v-2h-18v2zm77.427 4l.725-.688-.004-.005-.721.693zm3.2 13.8l-.984-.179v.002l.984.177zm-1.4 7.8l.983.182v-.005l-.983-.177zm-4.2 10.5l-.8-.6-.005.006-.005.007.81.587zm-6.5 5.7l-.427-.904-.787.371.259.831.955-.298zm9.1 29.2v1h1.359l-.405-1.298-.954.298zm-20.2 0l-.955.298.22.702h.735v-1zm-8.4-26.9l.954-.298-.22-.702h-.734v1zm-6.2 0v-1h-.86l-.129.849.989.151zm-4.1 26.9v1h.859l.13-.849-.99-.151zm-19.2 0l-.985-.174-.207 1.174h1.192v-1zm12.7-72v-1h-.84l-.145.826.985.174zm15.2 15.6v-1h-.862l-.128.852.99.148zm-2.6 17.4l-.99-.148-.171 1.148h1.16v-1zm14.6-2.5l.736.677.006-.007.007-.007-.75-.663zm1.8-29.5c7.495 0 12.558 1.651 15.478 4.693l1.443-1.386c-3.48-3.624-9.217-5.307-16.921-5.307v2zm15.474 4.688c2.204 2.327 3.326 5.271 3.326 8.912h2c0-4.092-1.279-7.548-3.874-10.288l-1.452 1.376zm3.326 8.912c0 1.267-.127 2.607-.384 4.021l1.967.358c.277-1.519.417-2.979.417-4.379h-2zm-.385 4.023l-1.4 7.8 1.969.354 1.4-7.8-1.969-.354zm-1.399 7.795c-.78 4.229-2.134 7.572-4.016 10.082l1.6 1.2c2.117-2.823 3.564-6.48 4.383-10.918l-1.967-.364zm-4.026 10.095c-1.858 2.563-3.902 4.337-6.117 5.383l.854 1.808c2.584-1.22 4.873-3.246 6.882-6.017l-1.619-1.174zm-6.645 6.585l9.1 29.2 1.91-.596-9.1-29.2-1.91.596zM96.227 213h-20.2v2h20.2v-2zm-19.246.702l-8.4-26.9-1.909.596 8.4 26.9 1.91-.596zM67.627 186.1h-6.2v2h6.2v-2zm-7.189.849l-4.1 26.9 1.977.302 4.1-26.9-1.977-.302zM57.327 213h-19.2v2h19.2v-2zm-18.216 1.174l12.7-72-1.97-.348-12.7 72 1.97.348zM50.827 143h29v-2h-29v2zm22.7 13.6h-7.5v2h7.5v-2zm-8.49.852l-2.6 17.4 1.979.296 2.6-17.4-1.979-.296zM63.427 176h7v-2h-7v2zm7 0c3.658 0 6.529-.859 8.335-2.823l-1.471-1.354c-1.26 1.37-3.456 2.177-6.864 2.177v2zm8.349-2.837c1.727-1.953 2.55-4.473 2.55-7.463h-2c0 2.61-.71 4.623-2.048 6.137l1.498 1.326zm2.55-7.463c0-2.816-.587-5.114-1.933-6.718-1.376-1.638-3.395-2.382-5.866-2.382v2c2.062 0 3.442.606 4.334 1.668.92 1.096 1.466 2.848 1.466 5.432h2zm84.237 2.4l-.983-.181-.002.009.985.172zm-3.5 20l-.985-.172v.002l.985.17zm-10.4 20.6l.642.767-.642-.767zm-42.7 0l-.762.647.001.001.761-.648zm-3.1-20.6l.983.183.002-.011-.985-.172zm3.5-20l-.985-.173v.001l.985.172zm30.5 29.2l-.655-.756.655.756zm4.2-9.6l-.984-.174-.001.005.985.169zm3.4-19.2l.985.174.002-.013.002-.013-.989-.148zm-7.9-11.7v-1h-.019l.019 1zm-12.3 11.7l.985.174v-.003l-.985-.171zm-3.4 19.2l-.984-.174-.002.008-.001.008.987.158zm18.3-45.4c7.923 0 13.679 1.623 17.442 4.699 3.725 3.045 5.658 7.648 5.658 14.001h2c0-6.78-2.083-12.027-6.392-15.549-4.27-3.491-10.564-5.151-18.708-5.151v2zm23.1 18.7c0 2.13-.226 4.435-.683 6.919l1.967.362c.476-2.583.716-5.011.716-7.281h-2zm-.685 6.928l-3.5 20 1.97.344 3.5-20-1.97-.344zm-3.5 20.002c-1.574 9.116-4.96 15.735-10.057 20.003l1.284 1.534c5.57-4.665 9.118-11.779 10.744-21.197l-1.971-.34zm-10.057 20.003c-5.094 4.267-12.335 6.467-21.858 6.467v2c9.811 0 17.57-2.266 23.142-6.933l-1.284-1.534zm-21.858 6.467c-9.558 0-15.922-2.215-19.438-6.348l-1.523 1.296c4.084 4.8 11.187 7.052 20.961 7.052v-2zm-19.437-6.347c-2.401-2.832-3.663-6.808-3.663-12.053h-2c0 5.555 1.339 10.045 4.138 13.347l1.525-1.294zM106.063 196c0-2.327.259-4.898.783-7.717l-1.966-.366c-.542 2.915-.817 5.61-.817 8.083h2zm.785-7.728l3.5-20-1.97-.344-3.5 20 1.97.344zm3.5-19.999c1.538-8.766 4.965-15.223 10.198-19.499 5.237-4.279 12.405-6.474 21.617-6.474v-2c-9.521 0-17.186 2.271-22.882 6.926-5.701 4.657-9.307 11.601-10.903 20.701l1.97.346zm21.515 32.627c3.51 0 6.43-.916 8.655-2.844l-1.31-1.512c-1.774 1.538-4.188 2.356-7.345 2.356v2zm8.655-2.844c2.267-1.965 3.719-5.453 4.531-10.187l-1.971-.338c-.789 4.599-2.137 7.512-3.87 9.013l1.31 1.512zm4.53-10.182l3.4-19.2-1.969-.348-3.4 19.2 1.969.348zm3.404-19.226c.206-1.37.311-2.621.311-3.748h-2c0 1.006-.094 2.155-.289 3.452l1.978.296zm.311-3.748c0-2.857-.724-5.183-2.347-6.786-1.621-1.601-3.968-2.314-6.853-2.314v2c2.583 0 4.335.637 5.448 1.736 1.11 1.097 1.752 2.821 1.752 5.364h2zm-9.219-9.1c-3.627.071-6.627 1.143-8.895 3.3-2.254 2.145-3.681 5.262-4.371 9.229l1.97.342c.644-3.699 1.934-6.366 3.779-8.121 1.832-1.743 4.316-2.687 7.556-2.75l-.039-2zm-13.265 12.526l-3.4 19.2 1.969.348 3.4-19.2-1.969-.348zm-3.403 19.216c-.276 1.722-.413 3.509-.413 5.358h2c0-1.751.13-3.431.388-5.042l-1.975-.316zm-.413 5.358c0 2.54.771 4.611 2.46 6.018 1.654 1.379 4.026 1.982 6.94 1.982v-2c-2.685 0-4.514-.563-5.66-1.518-1.111-.926-1.74-2.356-1.74-4.482h-2zM237.87 142l.985.172.205-1.172h-1.19v1zm-12.6 72v1h.84l.145-.828-.985-.172zm-18.1 0l-.953.305.222.695h.731v-1zm-12.6-39.4l.952-.305-1.938.135.986.17zm-6.8 39.4v1h.842l.143-.83-.985-.17zm-18.1 0l-.985-.174-.207 1.174h1.192v-1zm12.7-72v-1h-.84l-.145.826.985.174zm18.6 0l.947-.319-.229-.681h-.718v1zm12.4 36.8l-.948.319 1.932-.145-.984-.174zm6.5-36.8v-1h-.839l-.146.826.985.174zm17.015-.172l-12.6 72 1.97.344 12.6-72-1.97-.344zM225.27 213h-18.1v2h18.1v-2zm-17.148.695l-12.6-39.4-1.905.61 12.6 39.4 1.905-.61zm-14.538-39.265l-6.8 39.4 1.971.34 6.8-39.4-1.971-.34zM187.77 213h-18.1v2h18.1v-2zm-17.116 1.174l12.7-72-1.969-.348-12.7 72 1.969.348zM182.37 143h18.6v-2h-18.6v2zm17.652-.681l12.4 36.8 1.895-.638-12.4-36.8-1.895.638zm14.332 36.655l6.5-36.8-1.969-.348-6.5 36.8 1.969.348zM219.87 143h18v-2h-18v2zm75.05-1l.955-.296-.219-.704h-.736v1zm10.7 34.5l-.956.296.623 2.006 1.165-1.747-.832-.555zm23-34.5v-1h-.536l-.297.445.833.555zm18.9 0l.984.174.207-1.174h-1.191v1zm-12.7 72v1h.839l.145-.826-.984-.174zm-18.1 0l-.985-.175-.208 1.175h1.193v-1zm7.2-40.6l.984.175-1.828-.712.844.537zm-15.4 24.2v1h.548l.295-.463-.843-.537zm-13.1 0l-.963.271.205.729h.758v-1zm-6.8-24.2l.962-.271-1.947.096.985.175zm-7.2 40.6v1h.838l.146-.825-.984-.175zm-18 0l-.985-.174-.207 1.174h1.192v-1zm12.7-72v-1h-.84l-.145.826.985.174zm17.844.296l10.7 34.5 1.911-.592-10.7-34.5-1.911.592zm12.488 34.759l23-34.5-1.665-1.11-23 34.5 1.665 1.11zM328.62 143h18.9v-2h-18.9v2zm17.915-1.174l-12.7 72 1.969.348 12.7-72-1.969-.348zM334.82 213h-18.1v2h18.1v-2zm-17.116 1.175l7.2-40.6-1.969-.35-7.2 40.6 1.969.35zm5.372-41.312l-15.4 24.2 1.687 1.074 15.4-24.2-1.687-1.074zM308.52 196.6h-13.1v2h13.1v-2zm-12.138.729l-6.8-24.2-1.925.542 6.8 24.2 1.925-.542zm-8.747-24.104l-7.2 40.6 1.969.35 7.2-40.6-1.969-.35zM281.42 213h-18v2h18v-2zm-17.016 1.174l12.7-72-1.969-.348-12.7 72 1.969.348zM276.12 143h18.8v-2h-18.8v2zm108.544 71l-.999-.038-.04 1.038h1.039v-1zm.6-15.7l.999.038.04-1.038h-1.039v1zm-16.7 0v-1h-.735l-.22.702.955.298zm-4.9 15.7v1h.736l.219-.702-.955-.298zm-19.1 0l-.942-.336-.477 1.336h1.419v-1zm25.7-72v-1h-.705l-.237.664.942.336zm33 0l1-.006-.005-.994h-.995v1zm.4 72v1h1.006l-.006-1.006-1 .006zm-23.1-54.5v-1h-.736l-.219.703.955.297zm-7.9 25.4l-.955-.297-.403 1.297h1.358v-1zm13.1 0v1h.958l.041-.957-.999-.043zm1.1-25.4l.999.043.045-1.043h-1.044v1zm-1.201 54.538l.6-15.7-1.998-.076-.6 15.7 1.998.076zm-.399-16.738h-16.7v2h16.7v-2zm-17.655.702l-4.9 15.7 1.91.596 4.9-15.7-1.91-.596zM363.664 213h-19.1v2h19.1v-2zm-18.158 1.336l25.7-72-1.884-.672-25.7 72 1.884.672zM370.264 143h33v-2h-33v2zm32-.994l.4 72 2-.012-.4-72-2 .012zm1.4 70.994h-19v2h19v-2zm-24.055-53.797l-7.9 25.4 1.91.594 7.9-25.4-1.91-.594zm-6.945 26.697h13.1v-2h-13.1v2zm14.099-.957l1.1-25.4-1.998-.086-1.1 25.4 1.998.086zm.101-26.443h-6.3v2h6.3v-2zm94.463-16.5l.985.172.205-1.172h-1.19v1zm-12.6 72v1h.84l.145-.828-.985-.172zm-18.1 0l-.953.305.222.695h.731v-1zm-12.6-39.4l.952-.305-1.938.135.986.17zm-6.8 39.4v1h.842l.143-.83-.985-.17zm-18.1 0l-.985-.174-.207 1.174h1.192v-1zm12.7-72v-1h-.839l-.146.826.985.174zm18.6 0l.947-.319-.229-.681h-.718v1zm12.4 36.8l-.948.319 1.932-.145-.984-.174zm6.5-36.8v-1h-.839l-.146.826.985.174zm17.015-.172l-12.6 72 1.97.344 12.6-72-1.97-.344zM468.727 213h-18.1v2h18.1v-2zm-17.148.695l-12.6-39.4-1.905.61 12.6 39.4 1.905-.61zm-14.538-39.265l-6.8 39.4 1.971.34 6.8-39.4-1.971-.34zM431.227 213h-18.1v2h18.1v-2zm-17.116 1.174l12.7-72-1.969-.348-12.7 72 1.969.348zM425.827 143h18.6v-2h-18.6v2zm17.652-.681l12.4 36.8 1.895-.638-12.4-36.8-1.895.638zm14.332 36.655l6.5-36.8-1.969-.348-6.5 36.8 1.969.348zM463.327 143h18v-2h-18v2z"/>
    </g>
    <g filter="url(#filter2_d)">
        <path fill="#fff" d="M12.736 91.224c1.648 0 2.88.352 3.696 1.056.832.704 1.248 1.648 1.248 2.832 0 .208-.032.536-.096.984-.208 1.216-.736 2.256-1.584 3.12-.848.848-1.976 1.4-3.384 1.656L15.664 108h-2.016l-2.904-7.008h-3.12L6.4 108H4.72l2.952-16.776h5.064zm3.096 4.872c.048-.32.072-.608.072-.864 0-.848-.28-1.504-.84-1.968-.56-.464-1.424-.696-2.592-.696h-3.36l-1.248 7.08h3.384c1.328 0 2.376-.32 3.144-.96.768-.64 1.248-1.504 1.44-2.592zm17.414 7.92H25.59L23.43 108h-1.776l9.048-16.56h1.896L35.766 108H33.99l-.744-3.984zm-.264-1.344l-1.704-9.144-4.968 9.144h6.672zm14.832 5.496c-1.008 0-1.896-.168-2.664-.504-.752-.336-1.336-.808-1.752-1.416-.416-.608-.624-1.304-.624-2.088 0-.208.008-.368.024-.48h1.656c-.032.512.056 1.008.264 1.488.224.464.6.856 1.128 1.176.544.304 1.24.456 2.088.456 1.184 0 2.128-.296 2.832-.888.704-.592 1.056-1.392 1.056-2.4 0-.608-.168-1.112-.504-1.512-.32-.416-.72-.752-1.2-1.008-.48-.272-1.136-.576-1.968-.912-.976-.384-1.752-.736-2.328-1.056-.576-.336-1.056-.792-1.44-1.368-.368-.576-.52-1.312-.456-2.208.032-.864.288-1.624.768-2.28.496-.672 1.16-1.192 1.992-1.56.848-.384 1.808-.576 2.88-.576 1.056 0 1.96.184 2.712.552.768.352 1.336.84 1.704 1.464.384.624.552 1.312.504 2.064h-1.752c.032-.432-.072-.856-.312-1.272-.224-.416-.592-.752-1.104-1.008-.496-.272-1.112-.408-1.848-.408-1.136 0-2.064.28-2.784.84-.72.544-1.08 1.288-1.08 2.232 0 .56.16 1.032.48 1.416.32.384.712.704 1.176.96.464.256 1.104.552 1.92.888.944.384 1.704.744 2.28 1.08.592.336 1.088.784 1.488 1.344.416.56.624 1.264.624 2.112 0 .208-.008.368-.024.48-.064.816-.336 1.56-.816 2.232-.48.672-1.144 1.2-1.992 1.584-.832.384-1.808.576-2.928.576zm22.682-4.152H62.84L60.68 108h-1.776l9.048-16.56h1.896L73.016 108H71.24l-.744-3.984zm-.264-1.344l-1.704-9.144-4.968 9.144h6.672zM92.36 108h-1.68l-6.792-14.112L81.392 108h-1.68l2.952-16.776h1.68l6.816 14.088 2.472-14.088h1.68L92.36 108zm21.869-16.776l-7.2 10.248-1.152 6.528h-1.68l1.152-6.528-3.6-10.248h1.896l2.808 8.712 5.88-8.712h1.896zm13.923 12.792h-7.656l-2.16 3.984h-1.776l9.048-16.56h1.896l3.168 16.56h-1.776l-.744-3.984zm-.264-1.344l-1.704-9.144-4.968 9.144h6.672zm25.911 5.496c-1.008 0-1.896-.168-2.664-.504-.752-.336-1.336-.808-1.752-1.416-.416-.608-.624-1.304-.624-2.088 0-.208.008-.368.024-.48h1.656c-.032.512.056 1.008.264 1.488.224.464.6.856 1.128 1.176.544.304 1.24.456 2.088.456 1.184 0 2.128-.296 2.832-.888.704-.592 1.056-1.392 1.056-2.4 0-.608-.168-1.112-.504-1.512-.32-.416-.72-.752-1.2-1.008-.48-.272-1.136-.576-1.968-.912-.976-.384-1.752-.736-2.328-1.056-.576-.336-1.056-.792-1.44-1.368-.368-.576-.52-1.312-.456-2.208.032-.864.288-1.624.768-2.28.496-.672 1.16-1.192 1.992-1.56.848-.384 1.808-.576 2.88-.576 1.056 0 1.96.184 2.712.552.768.352 1.336.84 1.704 1.464.384.624.552 1.312.504 2.064h-1.752c.032-.432-.072-.856-.312-1.272-.224-.416-.592-.752-1.104-1.008-.496-.272-1.112-.408-1.848-.408-1.136 0-2.064.28-2.784.84-.72.544-1.08 1.288-1.08 2.232 0 .56.16 1.032.48 1.416.32.384.712.704 1.176.96.464.256 1.104.552 1.92.888.944.384 1.704.744 2.28 1.08.592.336 1.088.784 1.488 1.344.416.56.624 1.264.624 2.112 0 .208-.008.368-.024.48-.064.816-.336 1.56-.816 2.232-.48.672-1.144 1.2-1.992 1.584-.832.384-1.808.576-2.928.576zm16.633-15.624l-1.104 6.336h6.36l-.216 1.344h-6.384l-1.128 6.432h7.08L174.8 108h-8.76l2.952-16.8h8.784l-.264 1.344h-7.08zm24.519 3.504c-.256 1.44-.936 2.6-2.04 3.48-1.104.88-2.6 1.32-4.488 1.32h-3.384L183.791 108h-1.68l2.952-16.776h5.064c1.648 0 2.88.344 3.696 1.032.816.688 1.224 1.616 1.224 2.784 0 .368-.032.704-.096 1.008zm-6.264 3.408c2.624 0 4.136-1.136 4.536-3.408.064-.416.096-.712.096-.888 0-1.728-1.144-2.592-3.432-2.592h-3.384l-1.2 6.888h3.384zm15.363-6.912l-1.104 6.336h6.36l-.216 1.344h-6.384l-1.128 6.432h7.08l-.24 1.344h-8.76l2.952-16.8h8.784l-.264 1.344h-7.08zm19.694-1.32c1.648 0 2.88.352 3.696 1.056.832.704 1.248 1.648 1.248 2.832 0 .208-.032.536-.096.984-.208 1.216-.736 2.256-1.584 3.12-.848.848-1.976 1.4-3.384 1.656l3.048 7.128h-2.016l-2.904-7.008h-3.12L217.408 108h-1.68l2.952-16.776h5.064zm3.096 4.872c.048-.32.072-.608.072-.864 0-.848-.28-1.504-.84-1.968-.56-.464-1.424-.696-2.592-.696h-3.36l-1.248 7.08h3.384c1.328 0 2.376-.32 3.144-.96.768-.64 1.248-1.504 1.44-2.592zm19.766-4.872l-.24 1.344h-4.68L238.974 108h-1.68l2.712-15.432h-4.656l.24-1.344h11.016zm8.309 0L251.963 108h-1.68l2.952-16.776h1.68zm26.37 12.792h-7.656l-2.16 3.984h-1.776l9.048-16.56h1.896l3.168 16.56h-1.776l-.744-3.984zm-.264-1.344l-1.704-9.144-4.968 9.144h6.672zM303.149 108h-1.68l-6.792-14.112L292.181 108h-1.68l2.952-16.776h1.68l6.816 14.088 2.472-14.088h1.68L303.149 108zm15.749-16.776c2.432 0 4.304.568 5.616 1.704 1.312 1.136 1.968 2.736 1.968 4.8 0 .56-.064 1.2-.192 1.92-.304 1.728-.92 3.224-1.848 4.488-.928 1.248-2.12 2.208-3.576 2.88-1.44.656-3.088.984-4.944.984h-4.968l2.952-16.776h4.992zm-2.736 15.456c2.336 0 4.224-.616 5.664-1.848 1.44-1.248 2.352-2.976 2.736-5.184.112-.576.168-1.152.168-1.728 0-1.696-.512-3.008-1.536-3.936-1.024-.928-2.544-1.392-4.56-1.392h-3.288l-2.472 14.088h3.288zm26.178-2.664h-7.656l-2.16 3.984h-1.776l9.048-16.56h1.896L344.86 108h-1.776l-.744-3.984zm-.264-1.344l-1.704-9.144-4.968 9.144h6.672zM381.93 91.44L379.002 108h-1.68l2.328-13.2-8.208 13.2h-1.224l-3.6-13.176L364.314 108h-1.68l2.928-16.56h1.776l3.912 14.352 8.904-14.352h1.776zm9.299 1.104l-1.104 6.336h6.36l-.216 1.344h-6.384l-1.128 6.432h7.08l-.24 1.344h-8.76l2.952-16.8h8.784l-.264 1.344h-7.08zM415.556 108h-1.68l-6.792-14.112L404.588 108h-1.68l2.952-16.776h1.68l6.816 14.088 2.472-14.088h1.68L415.556 108zm18.533-16.776l-2.232 12.696c-.224 1.28-.8 2.312-1.728 3.096-.928.768-2.048 1.152-3.36 1.152-1.168 0-2.088-.312-2.76-.936-.656-.624-.984-1.48-.984-2.568 0-.384.032-.744.096-1.08h1.704c-.048.288-.072.56-.072.816 0 .688.184 1.24.552 1.656.368.416.944.624 1.728.624.896 0 1.608-.264 2.136-.792s.864-1.184 1.008-1.968l2.232-12.696h1.68zm15.688 12.792h-7.656l-2.16 3.984h-1.776l9.048-16.56h1.896l3.168 16.56h-1.776l-.744-3.984zm-.264-1.344l-1.704-9.144-4.968 9.144h6.672zm17.424-11.448c2.432 0 4.304.568 5.616 1.704 1.312 1.136 1.968 2.736 1.968 4.8 0 .56-.064 1.2-.192 1.92-.304 1.728-.92 3.224-1.848 4.488-.928 1.248-2.12 2.208-3.576 2.88-1.44.656-3.088.984-4.944.984h-4.968l2.952-16.776h4.992zm-2.736 15.456c2.336 0 4.224-.616 5.664-1.848 1.44-1.248 2.352-2.976 2.736-5.184.112-.576.168-1.152.168-1.728 0-1.696-.512-3.008-1.536-3.936-1.024-.928-2.544-1.392-4.56-1.392h-3.288l-2.472 14.088h3.288zm20.37-15.456L481.619 108h-1.68l2.952-16.776h1.68z"/>
    </g>
    <defs>
        <filter id="filter0_d" width="614.5" height="52.46" x="2.22" y="15.38" color-interpolation-filters="sRGB" filterUnits="userSpaceOnUse">
            <feFlood flood-opacity="0" result="BackgroundImageFix"/>
            <feColorMatrix in="SourceAlpha" values="0 0 0 0 0 0 0 0 0 0 0 0 0 0 0 0 0 0 127 0"/>
            <feOffset dy="4"/>
            <feGaussianBlur stdDeviation="2"/>
            <feColorMatrix values="0 0 0 0 0 0 0 0 0 0 0 0 0 0 0 0 0 0 0.25 0"/>
            <feBlend in2="BackgroundImageFix" result="effect1_dropShadow"/>
            <feBlend in="SourceGraphic" in2="effect1_dropShadow" result="shape"/>
        </filter>
        <filter id="filter1_d" width="485.809" height="84.1" x=".708" y="140.3" color-interpolation-filters="sRGB" filterUnits="userSpaceOnUse">
            <feFlood flood-opacity="0" result="BackgroundImageFix"/>
            <feColorMatrix in="SourceAlpha" values="0 0 0 0 0 0 0 0 0 0 0 0 0 0 0 0 0 0 127 0"/>
            <feOffset dy="4"/>
            <feGaussianBlur stdDeviation="2"/>
            <feColorMatrix values="0 0 0 0 0 0 0 0 0 0 0 0 0 0 0 0 0 0 0.25 0"/>
            <feBlend in2="BackgroundImageFix" result="effect1_dropShadow"/>
            <feBlend in="SourceGraphic" in2="effect1_dropShadow" result="shape"/>
        </filter>
        <filter id="filter2_d" width="487.851" height="25.136" x=".72" y="91.032" color-interpolation-filters="sRGB" filterUnits="userSpaceOnUse">
            <feFlood flood-opacity="0" result="BackgroundImageFix"/>
            <feColorMatrix in="SourceAlpha" values="0 0 0 0 0 0 0 0 0 0 0 0 0 0 0 0 0 0 127 0"/>
            <feOffset dy="4"/>
            <feGaussianBlur stdDeviation="2"/>
            <feColorMatrix values="0 0 0 0 0 0 0 0 0 0 0 0 0 0 0 0 0 0 0.25 0"/>
            <feBlend in2="BackgroundImageFix" result="effect1_dropShadow"/>
            <feBlend in="SourceGraphic" in2="effect1_dropShadow" result="shape"/>
        </filter>
    </defs>
</svg>
